<?xml version="1.0" encoding="UTF-8"?><svg id="Layer_2" xmlns="http://www.w3.org/2000/svg" viewBox="0 0 100.62 10"><defs><style>.cls-1{fill:#10002b;}</style></defs><g id="Layer_1-2"><path class="cls-1" d="m4.98,2.73c-.5-.45-1.16-.73-1.99-.73C1.22,2,0,3.33,0,5.07h0c0,1.76,1.18,3.09,3.1,3.09.74,0,1.33-.19,1.82-.53.51-.35.85-.85.98-1.38h-1.81c-.16.36-.48.58-.97.58-.76,0-1.19-.49-1.31-1.27h4.18c.01-1.18-.33-2.19-1.02-2.83Zm-3.15,1.73c.13-.69.49-1.14,1.19-1.14.6,0,1.03.44,1.1,1.14H1.83Z"/><rect class="cls-1" x="6.64" y=".28" width="1.87" height="7.71"/><path class="cls-1" d="m14.13,2.73c-.5-.45-1.16-.73-1.99-.73-1.77,0-2.99,1.33-2.99,3.07h0c0,1.76,1.18,3.09,3.1,3.09.74,0,1.33-.19,1.82-.53.51-.35.85-.85.98-1.38h-1.81c-.16.36-.48.58-.97.58-.76,0-1.19-.49-1.31-1.27h4.18c.01-1.18-.33-2.19-1.02-2.83Zm-3.15,1.73c.13-.69.49-1.14,1.19-1.14.6,0,1.03.44,1.1,1.14h-2.3Z"/><path class="cls-1" d="m22.84,2c-.75,0-1.38.32-1.83,1.02h-.02c-.3-.62-.88-1.02-1.64-1.02-.84,0-1.4.4-1.76,1h-.03v-.83h-1.77v5.82h1.85v-3.26c0-.69.36-1.18.92-1.18s.82.36.82.99v3.46h1.85v-3.26c0-.69.33-1.18.92-1.18.56,0,.82.36.82.99v3.46h1.85v-3.79c0-1.31-.66-2.21-1.98-2.21Z"/><path class="cls-1" d="m30.37,2.73c-.5-.45-1.16-.73-1.99-.73-1.77,0-2.99,1.33-2.99,3.07h0c0,1.76,1.18,3.09,3.1,3.09.74,0,1.33-.19,1.82-.53.51-.35.85-.85.98-1.38h-1.81c-.16.36-.48.58-.97.58-.76,0-1.19-.49-1.31-1.27h4.18c.01-1.18-.33-2.19-1.02-2.83Zm-3.15,1.73c.13-.69.49-1.14,1.19-1.14.6,0,1.03.44,1.1,1.14h-2.3Z"/><path class="cls-1" d="m35.64,2c-.81,0-1.36.34-1.8.97h-.03v-.8h-1.78v5.82h1.85v-3.22c0-.72.42-1.23,1.02-1.23s.91.42.91,1.03v3.41h1.85v-3.79c0-1.3-.75-2.21-2.02-2.21Z"/><path class="cls-1" d="m40.65.33h-1.81v1.84h-.77v1.16h.77v3.13h0c0,1.25.77,1.6,1.85,1.6.5,0,.85-.04,1.01-.09v-1.35c-.07,0-.25.01-.41.01-.4,0-.65-.11-.65-.57v-2.73h1.06v-1.16h-1.06V.33Z"/><path class="cls-1" d="m47.74,4.15c0-.73-.24-1.3-.74-1.66-.42-.32-1.01-.48-1.89-.48-1.76,0-2.59.92-2.64,2h1.71c.06-.49.35-.75.94-.75.56,0,.8.25.8.62,0,.4-.39.51-1.48.65-1.2.16-2.23.55-2.23,1.83,0,1.15.83,1.77,1.99,1.77.88,0,1.39-.31,1.73-.8h.02c.05.29.1.52.19.65h1.8v-.08c-.16-.1-.2-.36-.2-.83v-2.93Zm-1.77,1.76c0,.62-.48,1.05-1.17,1.05-.46,0-.8-.18-.8-.65s.3-.63,1.01-.78c.38-.09.72-.18.95-.31v.69Z"/><rect class="cls-1" x="48.65" y=".28" width="1.87" height="7.71"/><path class="cls-1" d="m55.99,6.79c-.8,0-1.19-.64-1.19-1.69s.4-1.72,1.19-1.72c.52,0,.84.34.95.86h1.78c-.17-1.31-1.18-2.23-2.76-2.23-1.84,0-3.05,1.33-3.05,3.08h0c0,1.75,1.22,3.08,3.09,3.08,1.65,0,2.72-1.05,2.76-2.39h-1.77c-.08.66-.43,1-1.01,1Z"/><path class="cls-1" d="m62.22,2.01c-1.86,0-3.11,1.33-3.11,3.08s1.24,3.08,3.11,3.08,3.1-1.33,3.1-3.08-1.24-3.08-3.1-3.08Zm-.01,4.84c-.81,0-1.23-.7-1.23-1.76s.42-1.77,1.23-1.77,1.24.72,1.24,1.77-.43,1.76-1.24,1.76Z"/><path class="cls-1" d="m69.79,2.79h-.02c-.34-.49-.86-.8-1.64-.8-1.44,0-2.44,1.13-2.44,2.91s1.22,2.76,2.52,2.76c.7,0,1.15-.28,1.49-.67h.05v.58c0,.71-.33,1.11-1.11,1.11-.61,0-.92-.26-1.02-.57h-1.8c.18,1.22,1.24,1.87,2.84,1.87.86,0,1.63-.19,2.14-.65.47-.42.77-1.06.77-1.93V2.17h-1.77v.62Zm-1.15,3.5c-.69,0-1.15-.56-1.15-1.44s.45-1.46,1.15-1.46c.77,0,1.18.66,1.18,1.44s-.38,1.45-1.18,1.45Z"/><path class="cls-1" d="m76.06,2c-.81,0-1.36.34-1.8.97h-.03v-.8h-1.78v5.82h1.85v-3.22c0-.72.42-1.23,1.02-1.23s.91.42.91,1.03v3.41h1.85v-3.79c0-1.3-.75-2.21-2.02-2.21Z"/><polygon class="cls-1" points="78.93 2.17 78.93 7.99 80.78 7.99 80.78 2.17 78.93 2.17 78.93 2.17"/><rect class="cls-1" x="78.93" width="1.85" height="1.36"/><path class="cls-1" d="m83.93.33h-1.81v1.84h-.77v1.16h.77v3.13h0c0,1.25.77,1.6,1.85,1.6.5,0,.85-.04,1.01-.09v-1.35c-.07,0-.25.01-.41.01-.4,0-.65-.11-.65-.57v-2.73h1.06v-1.16h-1.06V.33Z"/><polygon class="cls-1" points="85.66 2.17 85.66 7.99 87.51 7.99 87.51 2.17 85.66 2.17 85.66 2.17"/><rect class="cls-1" x="85.66" width="1.85" height="1.36"/><path class="cls-1" d="m91.25,2.01c-1.86,0-3.11,1.33-3.11,3.08s1.24,3.08,3.11,3.08,3.1-1.33,3.1-3.08-1.24-3.08-3.1-3.08Zm-.01,4.84c-.81,0-1.23-.7-1.23-1.76s.42-1.77,1.23-1.77,1.24.72,1.24,1.77-.43,1.76-1.24,1.76Z"/><path class="cls-1" d="m98.59,2c-.81,0-1.36.34-1.8.97h-.03v-.8h-1.78v5.82h1.85v-3.22c0-.72.42-1.23,1.02-1.23s.91.42.91,1.03v3.41h1.85v-3.79c0-1.3-.75-2.21-2.02-2.21Z"/></g></svg>