<?xml version="1.0" encoding="UTF-8"?><svg id="Layer_2" xmlns="http://www.w3.org/2000/svg" viewBox="0 0 28.12 32"><defs><style>.cls-1,.cls-2{fill:#999;}.cls-3{fill:#ccc;}.cls-2{fill-rule:evenodd;}</style></defs><g id="Layer_1-2"><path class="cls-3" d="m17.78,13.98l-3.69-2.1-3.7,2.1v4.21l3.7,2.11,3.68-2.1h10.35v-10.21L14.06,0,0,8v16l14.06,8,12.34-7.06-5.01-2.26-7.32,4.13-9.5-5.41v-10.81l9.5-5.4,9.5,5.4v3.39h-5.78Z"/><path class="cls-1" d="m23.56,10.59l4.56-2.6L14.06,0v5.19l9.5,5.41h0Z"/><path class="cls-1" d="m0,24l4.56-2.59v-10.81L0,8v16Z"/><path class="cls-1" d="m14.06,26.81v5.19l12.34-7.06-5.01-2.26-7.32,4.13h0Z"/><path class="cls-2" d="m28.12,18.21l-4.56-4.22h-5.77l-3.7,2.12v4.2l3.7-2.11h0s10.33.01,10.33.01h0Z"/></g></svg>