<?xml version="1.0" encoding="UTF-8"?><svg id="Layer_2" xmlns="http://www.w3.org/2000/svg" viewBox="0 0 161.3 48.02"><defs><style>.cls-1{fill:#ff0086;}.cls-2,.cls-3{fill:#b8006b;}.cls-4{fill:#10002b;}.cls-3{fill-rule:evenodd;}</style></defs><g id="Layer_1-2"><path class="cls-1" d="m19.07,15.12l-3.96-2.27-3.97,2.28v4.56l3.97,2.28,3.95-2.26h11.09v-11.05L15.07,0,0,8.65v17.3l15.07,8.65,13.22-7.64-5.38-2.45-7.85,4.47-10.18-5.85v-11.69l10.18-5.85,10.18,5.85v3.67h-6.19Z"/><path class="cls-2" d="m25.26,11.46l4.89-2.81L15.07,0v5.61l10.18,5.85Z"/><path class="cls-2" d="m0,25.96l4.89-2.8v-11.69L0,8.65v17.3Z"/><path class="cls-2" d="m15.07,29v5.61l13.22-7.64-5.38-2.45-7.85,4.47h0Z"/><path class="cls-3" d="m30.15,19.69l-4.89-4.57h-6.18l-3.97,2.29v4.55l3.97-2.28h0s11.07.01,11.07.01h0Z"/><path class="cls-4" d="m44.62,4.98c-4.29,0-7.4,3.17-7.4,7.55h0c0,2.14.73,4.07,2.06,5.43,1.39,1.42,3.33,2.18,5.62,2.18,1.75,0,3.22-.43,4.5-1.31,1.24-.85,2.1-2.06,2.42-3.39l.02-.08h-4.56l-.02.04c-.4.9-1.2,1.38-2.31,1.38-1.72,0-2.83-1.06-3.13-2.97h10.25v-.06c.03-2.97-.87-5.44-2.53-6.95-1.31-1.19-2.97-1.79-4.92-1.79Zm-2.77,5.99c.34-1.75,1.3-2.64,2.85-2.64,1.42,0,2.45,1.03,2.63,2.64h-5.48Z"/><rect class="cls-4" x="53.5" y=".79" width="4.73" height="18.93"/><path class="cls-4" d="m67.34,20.14c1.75,0,3.22-.43,4.5-1.31,1.24-.85,2.1-2.06,2.42-3.39l.02-.08h-4.56l-.02.04c-.4.9-1.2,1.38-2.31,1.38-1.72,0-2.83-1.06-3.13-2.97h10.25v-.06c.03-2.97-.87-5.44-2.53-6.95-1.31-1.19-2.97-1.79-4.92-1.79-4.29,0-7.4,3.17-7.4,7.55h0c0,2.14.73,4.07,2.06,5.43,1.39,1.42,3.33,2.18,5.62,2.18Zm-.2-11.81c1.42,0,2.45,1.03,2.63,2.64h-5.48c.34-1.75,1.3-2.64,2.85-2.64Z"/><path class="cls-4" d="m89.41,19.72v-8.02c0-1.74.84-2.82,2.19-2.82s1.94.79,1.94,2.34v8.49h4.68v-9.3c0-3.41-1.84-5.44-4.92-5.44-1.91,0-3.43.83-4.51,2.47-.77-1.57-2.25-2.47-4.05-2.47s-3.34.81-4.34,2.41v-2h-4.48v14.33h4.68v-8.02c0-1.69.88-2.82,2.19-2.82s1.94.79,1.94,2.34v8.49h4.68Z"/><path class="cls-4" d="m107.19,20.14c1.75,0,3.22-.43,4.5-1.31,1.24-.85,2.1-2.06,2.42-3.39l.02-.08h-4.56l-.02.04c-.4.9-1.2,1.38-2.31,1.38-1.72,0-2.83-1.06-3.13-2.97h10.25v-.06c.03-2.97-.87-5.44-2.53-6.95-1.31-1.19-2.97-1.79-4.92-1.79-4.29,0-7.4,3.17-7.4,7.55h0c0,2.14.73,4.07,2.06,5.43,1.39,1.42,3.33,2.18,5.62,2.18Zm-.2-11.81c1.42,0,2.45,1.03,2.63,2.64h-5.48c.34-1.75,1.3-2.64,2.85-2.64Z"/><path class="cls-4" d="m125.05,11.34v8.38h4.68v-9.3c0-3.31-1.97-5.44-5.03-5.44-1.89,0-3.3.74-4.42,2.33v-1.92h-4.51v14.32h4.68v-7.91c0-1.72,1-2.93,2.44-2.93,1.36,0,2.17.92,2.17,2.46Z"/><path class="cls-4" d="m137.07.91h-4.57v4.49h-1.9v2.96h1.9v7.56c0,2.71,1.47,3.97,4.61,3.97,1.26,0,2.12-.12,2.5-.23h.05v-3.43h-.07c-.07,0-.18,0-.31,0-.2,0-.46.02-.69.02-.91,0-1.52-.22-1.52-1.32v-6.59h2.59v-2.96h-2.59V.91Z"/><path class="cls-4" d="m154.47,17.44v-7.15c0-1.84-.62-3.21-1.84-4.1-1.07-.8-2.55-1.18-4.67-1.18-4.66,0-6.43,2.55-6.54,4.94v.07s4.31,0,4.31,0v-.06c.15-1.19.88-1.77,2.26-1.77,1.23,0,1.89.5,1.89,1.46s-.89,1.18-3.57,1.51c-2.57.34-5.52,1.16-5.52,4.53v.03c.01,2.69,1.91,4.36,4.95,4.36,1.95,0,3.3-.6,4.24-1.9.13.77.27,1.24.47,1.51l.02.03h4.5v-.3l-.03-.02c-.34-.21-.47-.77-.47-1.97Zm-4.48-2.85c0,1.48-1.13,2.48-2.81,2.48-.86,0-1.89-.26-1.89-1.51,0-.99.59-1.44,2.43-1.85.81-.2,1.66-.41,2.26-.71v1.59Z"/><rect class="cls-4" x="156.57" y=".79" width="4.73" height="18.93"/><path class="cls-4" d="m47.17,37.67c-.19,1.56-1.03,2.38-2.42,2.38-1.85,0-2.86-1.44-2.86-4.07s1.02-4.12,2.86-4.12c1.18,0,1.99.73,2.28,2.05v.05h4.52v-.07c-.46-3.39-3.08-5.49-6.85-5.49-4.44,0-7.54,3.11-7.54,7.57h0c0,4.46,3.15,7.58,7.65,7.58,3.91,0,6.73-2.42,6.84-5.88v-.07s-4.47,0-4.47,0v.06Z"/><path class="cls-4" d="m60.03,28.41c-2.2,0-4.19.77-5.58,2.17-1.37,1.38-2.12,3.29-2.12,5.4,0,4.46,3.17,7.57,7.71,7.57s7.68-3.11,7.68-7.57c0-2.11-.75-4.03-2.11-5.4-1.41-1.42-3.33-2.17-5.57-2.17Zm-.03,11.81c-1.84,0-2.95-1.58-2.95-4.23s1.1-4.26,2.95-4.26,2.97,1.59,2.97,4.26-1.11,4.23-2.97,4.23Z"/><path class="cls-4" d="m78.53,30.26c-.92-1.25-2.26-1.88-4-1.88-3.63,0-6.06,2.88-6.06,7.16,0,2.06.66,3.8,1.91,5.05,1.14,1.13,2.68,1.75,4.34,1.75,1.51,0,2.68-.52,3.68-1.64h.02v1.35c0,1.78-.87,2.65-2.67,2.65s-2.28-.84-2.45-1.34l-.02-.04h-4.53v.08c.45,2.94,3.02,4.63,7.05,4.63,2.27,0,4.1-.55,5.29-1.6,1.25-1.13,1.92-2.77,1.92-4.76v-12.87h-4.48v1.46Zm-2.75,8.6c-1.67,0-2.75-1.36-2.75-3.46s1.08-3.48,2.75-3.48c1.96,0,2.83,1.73,2.83,3.45,0,2.18-1.06,3.48-2.83,3.48Z"/><path class="cls-4" d="m93.99,28.38c-1.89,0-3.3.74-4.42,2.34v-1.92h-4.51v14.32h4.68v-7.91c0-1.72,1.01-2.93,2.44-2.93,1.36,0,2.17.92,2.17,2.46v8.38h4.68v-9.3c0-3.31-1.97-5.44-5.03-5.44Z"/><rect class="cls-4" x="100.95" y="23.51" width="4.68" height="3.45"/><rect class="cls-4" x="100.95" y="28.8" width="4.68" height="14.32"/><path class="cls-4" d="m113.36,24.31h-4.57v4.49h-1.9v2.96h1.9v7.56c0,2.71,1.47,3.97,4.61,3.97,1.26,0,2.12-.12,2.5-.23h.05v-3.43h-.07c-.07,0-.18,0-.31,0-.2,0-.46.02-.69.02-.91,0-1.52-.22-1.52-1.32v-6.59h2.59v-2.96h-2.59v-4.49Z"/><rect class="cls-4" x="117.46" y="23.51" width="4.68" height="3.45"/><rect class="cls-4" x="117.46" y="28.8" width="4.68" height="14.32"/><path class="cls-4" d="m131.25,28.41c-4.47,0-7.71,3.19-7.71,7.57s3.17,7.57,7.71,7.57,7.68-3.11,7.68-7.57c0-2.11-.75-4.03-2.11-5.4-1.41-1.42-3.33-2.17-5.57-2.17Zm-.03,11.81c-1.85,0-2.95-1.58-2.95-4.23s1.1-4.26,2.95-4.26,2.97,1.59,2.97,4.26-1.11,4.23-2.97,4.23Z"/><path class="cls-4" d="m149.26,28.38c-1.89,0-3.3.74-4.42,2.34v-1.92h-4.51v14.32h4.68v-7.91c0-1.72,1-2.93,2.44-2.93,1.36,0,2.17.92,2.17,2.46v8.38h4.68v-9.3c0-3.31-1.97-5.44-5.03-5.44Z"/></g></svg>