<?xml version="1.0" encoding="UTF-8"?><svg id="Layer_2" xmlns="http://www.w3.org/2000/svg" viewBox="0 0 161.36 48.02"><defs><style>.cls-1{fill:#fff;}.cls-2{fill:#ff0086;}.cls-3,.cls-4{fill:#b8006b;}.cls-4{fill-rule:evenodd;}</style></defs><g id="Layer_1-2"><path class="cls-2" d="m19.13,15.15l-3.94-2.3-3.98,2.25-.03,4.56,3.95,2.3,3.96-2.24,11.09.07.07-11.05L15.24,0,.11,8.56,0,25.86l15.02,8.75,13.27-7.56-5.36-2.48-7.88,4.42-10.15-5.91.07-11.69,10.22-5.78,10.15,5.91-.02,3.67-6.19-.04Z"/><path class="cls-3" d="m25.35,11.52l4.91-2.78L15.24,0l-.04,5.61,10.15,5.91Z"/><path class="cls-3" d="m0,25.86l4.91-2.77.07-11.69L.11,8.56l-.11,17.3Z"/><path class="cls-3" d="m15.05,29l-.04,5.61,13.27-7.55-5.36-2.48-7.88,4.42h0Z"/><path class="cls-4" d="m30.19,19.79l-4.86-4.6-6.18-.04-3.98,2.26-.03,4.55,3.98-2.25h0s11.07.08,11.07.08h0Z"/><path class="cls-1" d="m44.67,4.98c-4.29,0-7.4,3.17-7.4,7.55h0c0,2.14.73,4.07,2.06,5.43,1.39,1.42,3.33,2.18,5.62,2.18,1.75,0,3.22-.43,4.5-1.31,1.24-.85,2.1-2.06,2.42-3.39l.02-.08h-4.56l-.02.04c-.4.9-1.2,1.38-2.31,1.38-1.72,0-2.83-1.06-3.13-2.97h10.25v-.06c.03-2.97-.87-5.44-2.53-6.95-1.31-1.19-2.97-1.79-4.92-1.79Zm-2.77,5.99c.34-1.75,1.3-2.64,2.85-2.64,1.42,0,2.45,1.03,2.63,2.64h-5.48Z"/><rect class="cls-1" x="53.55" y=".79" width="4.73" height="18.93"/><path class="cls-1" d="m67.39,20.14c1.75,0,3.22-.43,4.5-1.31,1.24-.85,2.1-2.06,2.42-3.39l.02-.08h-4.56l-.02.04c-.4.9-1.2,1.38-2.31,1.38-1.72,0-2.83-1.06-3.13-2.97h10.25v-.06c.03-2.97-.87-5.44-2.53-6.95-1.31-1.19-2.97-1.79-4.92-1.79-4.29,0-7.4,3.17-7.4,7.55h0c0,2.14.73,4.07,2.06,5.43,1.39,1.42,3.33,2.18,5.62,2.18Zm-3.05-9.17c.34-1.75,1.3-2.64,2.85-2.64,1.42,0,2.45,1.03,2.63,2.64h-5.48Z"/><path class="cls-1" d="m89.47,19.72v-8.02c0-1.74.84-2.82,2.19-2.82s1.94.79,1.94,2.34v8.49h4.68v-9.3c0-3.41-1.84-5.44-4.92-5.44-1.91,0-3.43.83-4.51,2.47-.77-1.57-2.25-2.47-4.05-2.47s-3.35.81-4.34,2.41v-2h-4.48v14.33h4.68v-8.02c0-1.69.88-2.82,2.19-2.82s1.94.79,1.94,2.34v8.49h4.68Z"/><path class="cls-1" d="m107.25,20.14c1.75,0,3.22-.43,4.5-1.31,1.24-.85,2.1-2.06,2.42-3.39l.02-.08h-4.56l-.02.04c-.4.9-1.2,1.38-2.31,1.38-1.72,0-2.83-1.06-3.13-2.97h10.25v-.06c.03-2.97-.87-5.44-2.53-6.95-1.31-1.19-2.97-1.79-4.92-1.79-4.29,0-7.4,3.17-7.4,7.55h0c0,2.14.73,4.07,2.06,5.43,1.39,1.42,3.33,2.18,5.62,2.18Zm-3.05-9.17c.34-1.75,1.3-2.64,2.85-2.64,1.42,0,2.45,1.03,2.63,2.64h-5.48Z"/><path class="cls-1" d="m125.11,11.34v8.38h4.68v-9.3c0-3.31-1.97-5.44-5.03-5.44-1.89,0-3.3.74-4.42,2.33v-1.92h-4.51v14.32h4.68v-7.91c0-1.72,1-2.93,2.44-2.93,1.36,0,2.17.92,2.17,2.46Z"/><path class="cls-1" d="m137.12.91h-4.57v4.49h-1.9v2.96h1.9v7.56c0,2.71,1.47,3.97,4.61,3.97,1.26,0,2.12-.12,2.5-.23h.05v-3.43h-.07c-.07,0-.18,0-.31,0-.2,0-.46.02-.69.02-.91,0-1.52-.22-1.52-1.32v-6.59h2.59v-2.96h-2.59V.91Z"/><path class="cls-1" d="m154.52,17.44v-7.15c0-1.84-.62-3.21-1.84-4.1-1.07-.8-2.55-1.18-4.67-1.18-4.66,0-6.43,2.55-6.54,4.94v.07s4.31,0,4.31,0v-.06c.15-1.19.88-1.77,2.26-1.77,1.23,0,1.89.5,1.89,1.46s-.89,1.18-3.57,1.51c-2.57.34-5.52,1.16-5.52,4.53v.03c.01,2.69,1.91,4.36,4.95,4.36,1.95,0,3.3-.6,4.24-1.9.13.77.27,1.24.47,1.51l.02.03h4.5v-.3l-.03-.02c-.34-.21-.47-.77-.47-1.97Zm-4.48-4.44v1.59c0,1.48-1.13,2.48-2.81,2.48-.86,0-1.89-.26-1.89-1.51,0-.99.59-1.44,2.43-1.85.81-.2,1.66-.41,2.26-.71Z"/><rect class="cls-1" x="156.62" y=".79" width="4.73" height="18.93"/><path class="cls-1" d="m47.22,37.67c-.19,1.56-1.03,2.38-2.42,2.38-1.85,0-2.86-1.44-2.86-4.07s1.02-4.12,2.86-4.12c1.18,0,1.99.73,2.28,2.05v.05h4.52v-.07c-.46-3.39-3.08-5.49-6.85-5.49-4.44,0-7.54,3.11-7.54,7.57h0c0,4.46,3.15,7.58,7.65,7.58,3.91,0,6.72-2.42,6.84-5.88v-.07s-4.47,0-4.47,0v.06Z"/><path class="cls-1" d="m60.08,28.41c-4.47,0-7.71,3.19-7.71,7.57s3.17,7.57,7.71,7.57,7.68-3.11,7.68-7.57c0-2.11-.75-4.03-2.11-5.4-1.41-1.42-3.33-2.17-5.57-2.17Zm2.95,7.57c0,2.65-1.11,4.23-2.97,4.23s-2.95-1.58-2.95-4.23,1.1-4.26,2.95-4.26,2.97,1.59,2.97,4.26Z"/><path class="cls-1" d="m78.58,30.26c-.92-1.25-2.26-1.88-4-1.88-3.63,0-6.06,2.88-6.06,7.16,0,2.06.66,3.8,1.91,5.05,1.14,1.13,2.68,1.75,4.34,1.75,1.51,0,2.68-.52,3.68-1.64h.02v1.35c0,1.78-.87,2.65-2.67,2.65s-2.28-.84-2.45-1.34l-.02-.04h-4.53v.08c.45,2.94,3.02,4.63,7.05,4.63,2.27,0,4.1-.55,5.29-1.6,1.25-1.13,1.92-2.77,1.92-4.76v-12.87h-4.48v1.46Zm.09,5.12c0,2.18-1.06,3.48-2.83,3.48-1.67,0-2.75-1.36-2.75-3.46s1.08-3.48,2.75-3.48c1.96,0,2.83,1.73,2.83,3.45Z"/><path class="cls-1" d="m94.04,28.38c-1.89,0-3.3.74-4.42,2.34v-1.92h-4.51v14.32h4.68v-7.91c0-1.72,1-2.93,2.44-2.93,1.36,0,2.17.92,2.17,2.46v8.38h4.68v-9.3c0-3.31-1.97-5.44-5.03-5.44Z"/><rect class="cls-1" x="101.01" y="28.79" width="4.68" height="14.32"/><rect class="cls-1" x="101.01" y="23.51" width="4.68" height="3.45"/><path class="cls-1" d="m113.41,24.31h-4.57v4.49h-1.9v2.96h1.9v7.56c0,2.71,1.47,3.97,4.61,3.97,1.26,0,2.12-.12,2.5-.23h.05v-3.43h-.07c-.07,0-.18,0-.31,0-.2,0-.46.02-.69.02-.91,0-1.52-.22-1.52-1.32v-6.59h2.59v-2.96h-2.59v-4.49Z"/><rect class="cls-1" x="117.52" y="23.51" width="4.68" height="3.45"/><rect class="cls-1" x="117.52" y="28.79" width="4.68" height="14.32"/><path class="cls-1" d="m131.3,28.41c-4.47,0-7.71,3.19-7.71,7.57s3.17,7.57,7.71,7.57,7.68-3.11,7.68-7.57c0-2.11-.75-4.03-2.11-5.4-1.41-1.42-3.33-2.17-5.57-2.17Zm2.95,7.57c0,2.65-1.11,4.23-2.97,4.23s-2.95-1.58-2.95-4.23,1.1-4.26,2.95-4.26,2.97,1.59,2.97,4.26Z"/><path class="cls-1" d="m149.32,28.38c-1.89,0-3.3.74-4.42,2.34v-1.92h-4.51v14.32h4.68v-7.91c0-1.72,1-2.93,2.44-2.93,1.36,0,2.17.92,2.17,2.46v8.38h4.68v-9.3c0-3.31-1.97-5.44-5.03-5.44Z"/></g></svg>