<?xml version="1.0" encoding="UTF-8"?><svg id="Layer_2" xmlns="http://www.w3.org/2000/svg" viewBox="0 0 258.52 24"><defs><style>.cls-1{fill:#ff0086;}.cls-2{fill:#10002b;}</style></defs><g id="Layer_1-2"><path class="cls-2" d="m34.53,5.42c-3.98,0-6.88,2.96-6.9,7.04v.04c0,2.01.68,3.82,1.92,5.09,1.3,1.34,3.11,2.04,5.24,2.04,1.63,0,3.01-.4,4.2-1.23,1.16-.8,1.96-1.93,2.26-3.18v-.05s-4.22,0-4.22,0v.03c-.38.85-1.13,1.3-2.19,1.3-1.62,0-2.67-1.01-2.95-2.83h9.59v-.04c.03-2.79-.81-5.11-2.36-6.53-1.23-1.11-2.77-1.68-4.59-1.68Zm-2.61,5.63c.32-1.67,1.22-2.52,2.69-2.52,1.34,0,2.31.99,2.48,2.52h-5.17Z"/><rect class="cls-2" x="42.86" y="1.47" width="4.39" height="17.77"/><path class="cls-2" d="m55.52,5.42c-3.98,0-6.88,2.96-6.9,7.04v.04c0,2.01.68,3.82,1.92,5.09,1.3,1.34,3.11,2.04,5.24,2.04,1.63,0,3.01-.4,4.2-1.23,1.16-.8,1.96-1.93,2.26-3.18v-.05s-4.21,0-4.21,0v.03c-.38.85-1.14,1.3-2.19,1.3-1.62,0-2.67-1.01-2.95-2.83h9.59v-.04c.03-2.79-.81-5.1-2.36-6.53-1.23-1.11-2.77-1.68-4.59-1.68Zm-2.61,5.63c.32-1.67,1.22-2.52,2.69-2.52,1.34,0,2.31.99,2.48,2.52h-5.17Z"/><path class="cls-2" d="m80.06,5.42c-1.79,0-3.21.79-4.22,2.35-.72-1.49-2.09-2.35-3.78-2.35s-3.14.77-4.07,2.3h-.01v-1.9h-4.11v.04h-.04v13.4h4.34v-7.52c0-1.6.83-2.67,2.07-2.67s1.83.77,1.83,2.23v7.97h4.34v-7.52c0-1.65.79-2.67,2.07-2.67s1.84.75,1.84,2.23v7.97h4.34v-8.73c0-3.2-1.71-5.1-4.58-5.1Z"/><path class="cls-2" d="m92.78,5.42c-3.98,0-6.88,2.96-6.9,7.04v.04c0,2.01.68,3.82,1.92,5.09,1.3,1.34,3.11,2.04,5.24,2.04,1.63,0,3.01-.4,4.2-1.23,1.16-.8,1.96-1.93,2.26-3.18v-.05s-4.22,0-4.22,0v.03c-.38.85-1.13,1.3-2.19,1.3-1.62,0-2.67-1.01-2.95-2.83h9.59v-.04c.03-2.79-.81-5.11-2.36-6.53-1.23-1.11-2.77-1.68-4.59-1.68Zm-2.61,5.63c.32-1.67,1.22-2.52,2.69-2.52,1.34,0,2.31.99,2.48,2.52h-5.17Z"/><path class="cls-2" d="m109.42,5.42c-1.77,0-3.09.7-4.14,2.22h-.01v-1.83h-4.14v.04h-.04v13.4h4.33v-7.42c0-1.63.95-2.77,2.3-2.77,1.28,0,2.04.87,2.04,2.33v7.87h4.33v-8.73c0-3.1-1.84-5.1-4.68-5.1Z"/><path class="cls-2" d="m120.96,1.59h-4.23v4.22h-1.77v2.75h1.77v7.13c0,2.54,1.36,3.72,4.29,3.72,1.19,0,1.98-.11,2.33-.21h.03v-3.19h-.04c-.06,0-.17,0-.29,0-.19,0-.43.02-.65.02-.87,0-1.44-.21-1.44-1.26v-6.21h2.43v-2.75h-2.43V1.59Z"/><path class="cls-2" d="m137.23,17.12v-6.73c0-1.72-.58-3.01-1.71-3.84-.99-.75-2.38-1.1-4.36-1.1-4.35,0-6,2.39-6.09,4.63v.04s3.99,0,3.99,0v-.04c.14-1.13.83-1.68,2.13-1.68,1.17,0,1.78.48,1.78,1.39s-.84,1.13-3.35,1.44c-2.4.32-5.15,1.09-5.15,4.24,0,2.54,1.76,4.11,4.61,4.11,1.84,0,3.1-.58,3.98-1.82.12.75.26,1.2.44,1.46v.02h4.2v-.25h-.02c-.32-.22-.45-.75-.45-1.88Zm-4.15-2.69c0,1.41-1.06,2.35-2.64,2.35-1.47,0-1.78-.78-1.78-1.44,0-.93.58-1.38,2.29-1.76.77-.19,1.57-.4,2.14-.68v1.52Z"/><rect class="cls-2" x="139.23" y="1.47" width="4.39" height="17.77"/><path class="cls-2" d="m158.39,14.14c-.18,1.48-.97,2.26-2.28,2.26-1.74,0-2.7-1.37-2.7-3.84s.96-3.89,2.7-3.89c1.11,0,1.87.69,2.15,1.95v.03h4.19v-.05c-.42-3.18-2.86-5.15-6.38-5.15-4.14,0-7.03,2.92-7.03,7.11h0c0,4.19,2.93,7.11,7.14,7.11,3.64,0,6.27-2.27,6.38-5.52v-.04s-4.15,0-4.15,0v.04Z"/><path class="cls-2" d="m170.4,5.45c-2.06,0-3.9.72-5.21,2.04-1.28,1.29-1.98,3.09-1.98,5.07s.7,3.78,1.97,5.07c1.32,1.33,3.12,2.04,5.22,2.04s3.89-.71,5.2-2.04c1.26-1.29,1.96-3.09,1.96-5.07s-.7-3.78-1.97-5.07c-1.31-1.33-3.11-2.04-5.19-2.04Zm-.03,11.11c-1.74,0-2.77-1.5-2.77-4s1.04-4.03,2.77-4.03,2.8,1.5,2.8,4.03-1.05,4-2.8,4Z"/><path class="cls-2" d="m187.72,7.22c-.86-1.2-2.12-1.81-3.76-1.81s-3.06.63-4.08,1.82c-1.03,1.21-1.57,2.9-1.57,4.9s.62,3.57,1.78,4.73c1.06,1.06,2.5,1.65,4.05,1.65,1.41,0,2.5-.49,3.43-1.54h.04v1.29c0,1.69-.82,2.51-2.51,2.51s-2.15-.8-2.31-1.27v-.03h-4.22v.05c.42,2.76,2.81,4.34,6.57,4.34,2.12,0,3.83-.52,4.93-1.5,1.17-1.05,1.79-2.6,1.79-4.46V5.81h-4.15v1.41Zm-2.59,8.05c-1.57,0-2.59-1.28-2.59-3.27s1.02-3.29,2.59-3.29c1.84,0,2.67,1.64,2.67,3.27,0,2.06-1,3.29-2.67,3.29Z"/><path class="cls-2" d="m202.16,5.42c-1.77,0-3.09.7-4.14,2.22h-.01v-1.83h-4.14v.04h-.04v13.4h4.33v-7.42c0-1.63.95-2.77,2.3-2.77,1.28,0,2.04.87,2.04,2.33v7.87h4.34v-8.73c0-3.1-1.84-5.1-4.68-5.1Z"/><polygon class="cls-2" points="208.69 5.81 208.69 19.25 213.03 19.25 213.03 5.81 208.73 5.81 208.69 5.81"/><rect class="cls-2" x="208.69" y=".83" width="4.34" height="3.21"/><path class="cls-2" d="m220.25,1.59h-4.23v4.22h-1.77v2.75h1.77v7.13c0,2.54,1.36,3.72,4.29,3.72,1.18,0,1.98-.11,2.33-.21h.03v-3.19h-.04c-.06,0-.17,0-.29,0-.19,0-.43.02-.65.02-1.02,0-1.44-.37-1.44-1.26v-6.21h2.43v-2.75h-2.43V1.59Z"/><rect class="cls-2" x="224.13" y=".83" width="4.34" height="3.21"/><polygon class="cls-2" points="224.13 5.81 224.13 19.25 228.46 19.25 228.46 5.81 224.17 5.81 224.13 5.81"/><path class="cls-2" d="m237,5.45c-2.06,0-3.9.72-5.21,2.04-1.28,1.29-1.98,3.09-1.98,5.07s.7,3.78,1.97,5.07c1.32,1.33,3.12,2.04,5.22,2.04s3.89-.71,5.2-2.04c1.26-1.29,1.96-3.09,1.96-5.07s-.7-3.78-1.97-5.07c-1.31-1.33-3.11-2.04-5.19-2.04Zm-.03,11.11c-1.74,0-2.77-1.5-2.77-4s1.04-4.03,2.77-4.03,2.8,1.5,2.8,4.03-1.05,4-2.8,4Z"/><path class="cls-2" d="m253.84,5.42c-1.77,0-3.09.7-4.14,2.22h-.01v-1.83h-4.14v.04h-.04v13.4h4.34v-7.42c0-1.63.95-2.77,2.3-2.77,1.28,0,2.04.87,2.04,2.33v7.87h4.33v-8.73c0-3.1-1.84-5.1-4.68-5.1Z"/><path class="cls-1" d="m13.34,10.49l-2.77-1.58-2.77,1.58v3.16l2.77,1.58,2.76-1.57h7.76v-7.66L10.54,0,0,6v12l10.54,6,9.25-5.3-3.76-1.7-5.49,3.1-7.13-4.05V7.94l7.13-4.05,7.12,4.05v2.54h-4.34Z"/></g></svg>